<?xml version="1.0" encoding="UTF-8"?>
<svg id="Calque_1" data-name="Calque 1" xmlns="http://www.w3.org/2000/svg" viewBox="0 0 551.14 447.6">
  <path d="M275.51,94.32c3.67-33.14,31.41-71.7,71.71-85.05,37.21-12.33,74.69-13.18,111.06,2.42,49.09,21.05,79.48,58.43,89.97,110.83,6.74,33.7,1.62,66.27-14.55,96.85-.69,1.3-1.43,2.57-2.5,4.47-8.21-13.87-17.83-25.97-29.68-36.61.36-1.27.69-2.56,1.1-3.82,18.5-57.7-13.05-114.25-63.88-133.48-15.59-5.9-31.72-7.38-48.21-6.07-11.16.89-22.06,2.95-32.5,7.12-12.93,5.16-23.78,13.14-32.39,24.1-3.94,5.01-6.95,10.5-8.35,16.81-2.77,12.55,2.67,25.68,13.55,32.48,6.21,3.88,13.11,5.83,20.28,6.7,4.78.58,9.62.85,14.44.87,30.34.07,60.68.04,91.01.04h4.84c.37,9.79.1,19.34.2,29.31-1.65-.59-2.8-.95-3.92-1.4-16.01-6.44-32.62-9.79-49.88-10.33-27.78-.88-53.73,5.55-78.04,18.84-2.15,1.18-3.96,1.35-6.26.55-26.3-9.12-41.35-27.81-46.82-54.71-.42-2.06-.68-4.14-1.4-6.3-.28,1.46-.57,2.92-.83,4.39-2.61,14.7-8.22,27.98-18.64,38.92-8.3,8.72-18.5,14.35-29.84,18.12-1.82.6-3.07.01-4.5-.78-12.75-7.05-26.19-12.34-40.43-15.45-30.06-6.56-59.49-4.65-88.17,6.85-1.01.4-2.05.74-3.37,1.21v-29.21c1.52,0,2.96,0,4.4,0,30.83,0,61.67-.01,92.5,0,7.84,0,15.58-.7,23.09-3.04,2.59-.81,5.16-1.77,7.58-2.99,14.57-7.38,20.75-23.38,15.07-38.72-1.87-5.05-4.72-9.52-8.16-13.64-9.69-11.61-21.71-19.86-36.15-24.35-23.12-7.19-46.48-8.28-69.83-1.31-37.11,11.09-66.39,44.05-73.28,81.97-3.37,18.53-2.16,36.71,3.81,54.57.27.81.49,1.64.8,2.68-11.67,10.46-21.39,22.56-29.58,36.41-.76-1.12-1.35-1.86-1.8-2.68-9.42-17.14-15.26-35.41-17.11-54.89C-3.73,117.87,11.26,76.59,45.5,42.67,68.8,19.59,97.01,5.64,129.77,1.75c26.71-3.18,52.99-.99,78.09,9.14,31.26,12.62,52.28,35.39,63.76,66.98,1.42,3.92,1.99,8.15,2.95,12.24.28,1.18.53,2.36.94,4.21Z"/>
  <path d="M19.69,224.04c8.28,14,17.92,26.03,29.53,36.44-1.31,4.9-2.78,9.61-3.82,14.41-13.15,60.53,26.83,115.44,81.01,127.17,12.71,2.75,25.55,2.84,38.42,1.43,10.63-1.16,20.98-3.53,30.79-7.9,13.32-5.93,24.31-14.74,32.39-26.94,4.94-7.45,7.43-15.58,5.72-24.66-1.87-9.9-7.18-17.22-16.07-21.93-6.68-3.54-13.92-5.11-21.35-5.8-4.31-.4-8.65-.54-12.98-.55-29.72-.05-59.43-.02-89.15-.02h-4.63v-29.08c1.11.39,2.12.71,3.11,1.11,20.64,8.39,42.13,11.71,64.32,10.38,22.58-1.35,43.81-7.6,63.62-18.5,2.56-1.41,4.69-1.5,7.32-.56,27,9.63,41.78,29.21,46.62,56.96.23,1.33.51,2.64.73,3.77,1.46-5.79,2.58-11.8,4.5-17.55,7.37-21.97,22.48-36.21,44.31-43.59,2.1-.71,3.73-.3,5.58.71,15.32,8.41,31.55,14.2,48.83,16.99,26.87,4.33,53.02,1.84,78.4-8.14,1.15-.45,2.3-.91,3.46-1.33.21-.08.47-.01.97-.01v28.65c-1.49.06-2.93.18-4.37.18-30.71.01-61.42-.02-92.12.03-7.56.01-15.1.61-22.4,2.76-2.95.87-5.9,1.93-8.65,3.31-14.51,7.29-20.8,23.46-15.17,38.71,1.87,5.05,4.72,9.52,8.15,13.64,9.08,10.91,20.23,19.02,33.67,23.54,25.23,8.47,50.94,10.11,76.11.8,38.46-14.21,61.79-42.09,69.73-82.37,3.46-17.56,1.85-35.01-3.81-52.01-.81-2.43-.67-3.93,1.34-5.76,9.86-8.97,18.11-19.3,25.09-30.65.65-1.05,1.33-2.07,2.21-3.45.7,1.06,1.33,1.89,1.82,2.79,9.94,18.17,15.76,37.57,17.36,58.23,3.32,42.73-9.29,80.26-37.61,112.21-24.12,27.22-54.44,43.86-90.65,48.47-26.61,3.39-52.97,1.32-78.17-8.65-31.64-12.52-52.91-35.34-64.58-67.14-1.9-5.18-2.69-10.76-3.99-16.15-.38,2.15-.76,4.44-1.21,6.72-3.12,15.94-10.81,29.64-20.7,42.27-13.18,16.83-29.9,28.89-50.1,35.7-30.79,10.37-62.22,12.02-93.59,3.39-39.04-10.73-68.69-34.29-89.37-69.05C5.15,347.49-1.21,319.77.19,290.18c1.05-22.12,6.77-42.92,17.28-62.41.57-1.06,1.23-2.07,2.22-3.73Z"/>
</svg>