<?xml version="1.0" encoding="UTF-8"?>
<svg id="tracés" xmlns="http://www.w3.org/2000/svg" viewBox="0 0 160 160">
  <defs>
    <style>
      .cls-1 {
        fill: none;
        stroke: #7a1711;
        stroke-miterlimit: 10;
      }
    </style>
  </defs>
  <path class="cls-1" d="M86.62,18.12s-3.74-.19-7.4,2.8-4.42,3.55-6.97,5.15-3.86,4.38-6.42,5.15-2.27,2.99-6.91,3.63-1.73,1.39-5.4,1.2-7.27-.68-10.18.03-2.97,2.03-5.46,1.48-3.05-.54-5.19-.47-2.22-.75-4.02-.61-2.22-.34-4.5.22-4.99-.47-6.78.37-5.19,1.42-3.98,3.01c1.2,1.59,2.4,2.32,2.31,3.64s.04,1.93.62,2.36,1.36,2.11.98,3.52-.96,3.7-.56,6.32c.4,2.62-.18,3.02.31,4.52.49,1.51,1.19,7.95,1.01,11.26s-.95,6.53-.55,8.76.98,3.01.31,5.55c-.67,2.53-2.8,4.78-2.9,6.14-.09,1.36-1.26,1.76-1.25,3.02,0,1.27.79,2.33-.18,4.28-.97,1.95-.96,2.63-.96,4.09,0,1.46-.77,1.46-.67,3.02s-.68.59-.38,3.41c.3,2.82-1.45,2.54-1.06,4.09s.1.19.59,2.72c.5,2.53-.18,3.89.99,4.77s9.45,1.13,10.42,1.03.6,3.5,1.57,4.67,7.33,6.59,7.81,6.98,1.36,0,1.36,0c0,0,1.96,3.2,3.03,3.2s2.24,1.65,3.7,1.64,2.05.67,3.51.67,4.39,1.44,7.11.56c2.72-.89,5.65,1.19,7.2.29s2.03-3.24,2.03-4.02-.38,1.46.79,2.63c1.17,1.16,1.08,1.53,2.16,2.4s1.58-.37,2.45.78c.87,1.15,1.74,2.3,2.89,2.37s2.09.28,2.67.78.22,1.01,1.88,1.07,3.9.99,5.92,1.64,2.31,1.72,3.9,2,3.54,1.12,6.49,0c2.95-1.12,3.89-1.48,4.6-3.93.71-2.45,2.29-3.4,2.5-5.99s2.09-.73,4.17-1.82,10.42-7.39,11.59-7,3.54-6.52,4.67-7.66c1.13-1.14,2.01-1.65,2.83-3.23.81-1.58,2.07-2.72,2.57-3.8s.37-1.39,1.5-2.66.68-2.46,1.5-3.48c.82-1.01,1.88-2.34.55-3.66s1.89-.58,3.53-1.78,3.14-4.56,3.2-5.75,2.26-2.91,2.95-3.42-.76-.38,0-1.45c.75-1.08,2.14-.58,3.14-3.04,1-2.46,2.14-1.65,2.13-5.44-.01-3.79,2.34,1,2-4.11s.63-1.26.94-1.9-.7-2.33-.33-4.42-4.43-3.96-5.51-4.02-1.53-4.16-5.02-8.94-7.42-10.76-9.64-12.84-2.66-2.07-3.04-3.33c-.38-1.26-2.79-4.6-3.87-4.78s.44-1.07-1.27-2.71c-1.71-1.63-2.73-4.47-4.57-5.79-1.83-1.32-.58-1.89-2.73-4.22-2.15-2.33-1.28-3.59-2.17-5.86s-2.34-1.7-3.93-4.02-3.68-5.29-6.27-6.22-4.1-.62-5.92,1.98c-1.82,2.59-2.43,3.16-2.43,3.16Z"/>
  <path class="cls-1" d="M71.25,86.11s1.38,2.03,2.55,2.21,4.85.39,6.14,0,1.31-1.85,2.09-1.89,2.39-.94,2.45-1.99-.38-1.32,0-1.92,1.16-1.05.43-1.89c-.72-.84-1.09-2.06-2.37-2.45s-2.28-.86-2.79-.89"/>
  <path class="cls-1" d="M82.03,86.43s-.76-.84-1.08-1.51-.28-.08-1.54-.43-.2-.08-.32-1.14c-.12-1.07-.55-.12-.86-.42s-.8-.05-1.12,0,0,.74-.52,1.16-.67-.27-1.3-.47-.24-.72-.47-1.47.19-.39.04-1.05.15-.69.56-1.08.51.03,1.17-.15c0,0,1.07-.18.9.61-.17.79-.04,1.02.58,1.03s1.15-.46,1.78,0-.21.21.3.94,0,.55.75.96-.55.37,1.02.52,1.71.11,2.09.05.45-.16.45-.16"/>
  <path class="cls-1" d="M86.41,19.28s-6.95,36.19-7.38,43.92c-.43,7.73.18,10.56.89,11.86"/>
  <path class="cls-1" d="M81.6,72.8s10.17-16.32,15.23-19.45c5.06-3.13,13.14-8.97,14.61-9.38"/>
  <path class="cls-1" d="M85.21,22.89s-6.18,16.83-8.32,25.1c-2.15,8.27-5.3,18.89-5.1,22.55s.3,5.27.96,6.76"/>
  <path class="cls-1" d="M85.21,88.53s4,24.03,5.95,30.15.76,5.1,2.68,9.3c1.91,4.19,3.03,5.8,3.18,9.37"/>
  <path class="cls-1" d="M75.25,90.87s-6.57,11.24-8.88,18.84-4.1,12.73-5.12,18.11c-1.02,5.39-1.4,6.88-1.4,6.88"/>
  <path class="cls-1" d="M122.74,105.84s-7.54-4.72-11.67-6.76c-4.13-2.04-8.7-3.73-13.02-7.3s-6.07-5.08-6.94-5.35"/>
  <path class="cls-1" d="M54.05,38.02s4.17,12.44,5.79,15.74,3.34,6.62,4.69,10.1c1.36,3.49,1.18,4.3,2.53,5.81"/>
  <path class="cls-1" d="M17.18,46.13s11.04,6.23,16.25,8.81,7.9,4.09,11.67,6.23,8.98,6.15,12.39,7.75c3.41,1.6,7.86,4.54,9.59,5.7"/>
  <path class="cls-1" d="M18.26,47.92s9.16,7.13,11.05,7.84,2.79,3.69,5.21,4.61,5.57,3.41,7,4.3,3.24,2.85,4.76,3.57,6.92,5.08,8.98,6.37,2.6,2.63,5.3,4.41c2.7,1.78,3.33,2.67,4.85,3.3"/>
  <path class="cls-1" d="M89.03,79.84s24.94-5.18,32.07-5.9,11.29-1.92,11.29-1.92"/>
  <path class="cls-1" d="M82.65,74.61s4.17-2.72,12.2-1.81,12.77-.55,16.59-.78,15.21-1.17,18.08-.58"/>
  <path class="cls-1" d="M23.96,121.44s20.09-15.95,27.39-19.5c7.29-3.55,6.41-4.37,10.94-5.8s5.91-2.83,7.92-3.97"/>
  <path class="cls-1" d="M24.84,119.04s20.83-21.95,27.74-24.89,7.79-4.21,10.18-4.85"/>
  <path class="cls-1" d="M18.84,86.78s1.4-2.12,8.27-2.67,16.37-1.16,19.98-.97,10.83-.04,11.36-.03"/>
</svg>