<?xml version="1.0" encoding="UTF-8"?>
<svg id="tracés" xmlns="http://www.w3.org/2000/svg" viewBox="0 0 160 160">
  <defs>
    <style>
      .cls-1 {
        fill: #1d1d1b;
      }

      .cls-1, .cls-2 {
        stroke: #7a1711;
        stroke-miterlimit: 10;
      }

      .cls-2 {
        fill: none;
      }
    </style>
  </defs>
  <path class="cls-2" d="M47.66,51.94s-7.66-.84-12.94,1.94c-5.28,2.78-8.83,3.19-13.09,3.76s-12.15.99-13.16,7.08c-1,6.08.91,10.73,5.02,11.9,4.11,1.17,10.11,1.38,12.56,2.08s3.8,2.2,6.09,2.42,7.83,3.37,11.47,5.72,4.04,3.54,7.28,4.24c3.24.7-3.63,1.04-3.85,5.94-.22,4.9-.52,8.61-1.45,13.43-.93,4.82-2.02,10.03-2.01,11.22,0,1.18-1.78,8.85-1.61,11.53s-.38,3.71.1,5.61c.48,1.89.73,4.1,1.12,4.73s2.94,5.91,9.87-.98c6.92-6.89,15.65-16.88,16.82-20.2s2.97-8.3,4.38-10.36c1.41-2.06,3.3-4.35,3.61-5.3s6.64,3.21,8.94,3.99,6.96,4.24,7.83,4.71,4.59,2.98,7.29,5.89,4.68,7.09,7.85,8.02,5.61,2.11,6.17,2.27,4.82,2.03,4.33-4.12-.35-7.81-1.86-11.76c-1.51-3.94-3.04-9.46-4.07-12.77s-2.3-3.7-2.95-7.65-2.23-5.36-2.23-5.36c0,0,5.76-2.15,10.26-2.09s15.64.81,19.11.8,8.14.84,8.92.84,6.08,1.16,3.06-5.46-7.95-13.55-16.09-16.36-4.91-3.38-14.07-4.84-9.24-.12-9.24-.12c0,0,3.93-5.3,4.14-11.38.21-6.08,1.29-13.35,3.01-18.96,1.72-5.61,4.15-10.28-1.16-14.21s-7.91-4.94-9.49-3.75c-1.57,1.19-4.72,3.57-7.24,6.82s-9.53,5.64-10.48,6.75c-.94,1.11-7.8,3.9-9.76,6.67-1.96,2.77-4.16,5.31-4.16,5.31,0,0-7.14-9.76-9.6-13.46-2.46-3.7-6.18-6.45-6.58-6.77s-8.23-5.34-14.3-3.1-7.09,4.13-6.93,5.08,3.51,10.33,4.55,13.01c1.04,2.68,2,7.18,3.2,10.01,1.19,2.84,1.28,4.42,1.28,5.36s.09,1.89.09,1.89Z"/>
  <path class="cls-1" d="M77.28,53.77s-6.6,1.79-7.58,3.9-.66,2.2-.66,2.2c0,0,3.97-2.64,6.13-3.54s2.1-2.55,2.1-2.55Z"/>
  <path class="cls-1" d="M93.07,53.42s-1.19-.75-3.78.65c-2.59,1.4-2.33,2.2-3.75,1.92s-2.19-.16-2.19.06-.46,1.08,1.02,1.54,3.29.25,3.98-.16,4.69-1.6,4.72-2.59,0-1.41,0-1.41Z"/>
  <path class="cls-1" d="M93.33,64.29s-.24,2.25.26,3.8c.5,1.55.54,2.1,1.09,2.88s1.03.94,1.03.94c0,0,1.22-2.11.82-4.05-.4-1.94-.3-2.72-.97-3s-2.23-.56-2.23-.56Z"/>
  <path class="cls-1" d="M70.1,70.41s-.92-.66-1.94-1.65c-1.16-1.13-2.45-2.68-2.66-4.16l-.39-2.78,1.75.18s.12,1.9,1.31,3.35,1.74,1.69,1.92,2.75,0,2.31,0,2.31Z"/>
  <path class="cls-2" d="M68.47,82.06s1.34,7.46-3.17,8.89c-4.5,1.43-10.7-.27-11.77-.71"/>
  <path class="cls-2" d="M75.15,39.35s-7.85,9.08-7.16,15.74c.69,6.66-.08,5.54,1.96,8.03,2.04,2.48,2.84,3.29,3.18,3.95"/>
  <path class="cls-2" d="M49.57,50.73s5.69-.48,9.92,2.81c4.23,3.29,6.74,6.99,6.74,6.99"/>
  <path class="cls-2" d="M86.53,75.56s11.6,2.66,15.61-2.56,7.47-8.08,7.74-9.47"/>
  <path class="cls-2" d="M92.76,77.7s4.71-.68,9.64,3.5c4.93,4.18,4.93,4.44,4.93,4.44"/>
  <path class="cls-2" d="M74.87,86.37s-4.65,1.66-4.44,4.37-.09,2.77.37,3.84.78,2.66,1.55,3.22,3.34,3.98,4.58,4.95"/>
  <path class="cls-1" d="M71.37,80.18s-2.29-1.29.15-1.71,5.41-.16,5.41-.16c0,0,1.14-.26,1.36.39s.85,1.16-.39,1.14-2.79.11-3.75.11-2.77.23-2.77.23Z"/>
  <path class="cls-1" d="M87.77,79.65s-2.34,1.47-1.41,2.11,3.31-1.26,3.31-1.26c0,0,3.01-1.61,2.01-2.16s-2.48.33-2.8.54-1.11.77-1.11.77Z"/>
  <path class="cls-2" d="M77.28,54.54s-.21,1.11.62,1.8.64,1.82.65,2.83-.15,10.45-.15,10.45c0,0,.51,1.45-1.02,3.65s-4.4,4.89-4.4,4.89"/>
  <path class="cls-2" d="M77.28,53.77s.94-1.98,2.54-1.24,2.56.36,2.2,1.8c-.36,1.43-.77,5.15-.76,6.21s-.58,5.61-.71,7.56c-.13,1.96-.37.85-.36,2.84s.28,3.28-.5,4.58-1.88,2.65-1.88,2.65"/>
  <path class="cls-2" d="M68.43,69.02s0,1.24,1.47,4.2,1.56,2.48,1.36,3.52-.34,1.88-.34,1.88"/>
  <path class="cls-2" d="M70.18,69.88s1.17,1.99,1.76,3.3c.59,1.31.91,2.02.64,4.98"/>
  <path class="cls-2" d="M70.62,79.58s-.64.81-.2,1.51.56.8.56.8c0,0-.65.49,0,1.22s1.56.84,1.91.7.63-.35,1.62-.36,5.74-.34,5.74-.34l3.31-.34s1.03-.41,1.76-.48,1.04-.54,1.04-.54"/>
  <path class="cls-2" d="M74.73,79.94s.57,0,.42.82.03.62.03.62c0,0,3.52-.28,4.95-.25s2.82-.27,3.9-.28,1.47-.22,1.76-.17.57,0,.57,0"/>
  <path class="cls-2" d="M86.53,57.96s-1.72,5.34-3.25,7.5c-1.53,2.16-2.47,3.5-2.66,3.55"/>
  <path class="cls-2" d="M80.23,73.16s2.1-2.48,2.88-4.29,1.55-3.95,1.55-3.95c0,0,1.55-3.04,1.87-4.35s.88-2.61.88-2.61"/>
  <path class="cls-2" d="M77.8,81.19s4.78-2.87,7.21-4.81c2.43-1.94,2.97-2.17,4.18-3.76,1.21-1.59,3.39-3.02,3.82-3.31s.76-.61.76-.61"/>
  <path class="cls-2" d="M78.32,78.36s4.88-2.66,6.47-4.14,3.9-3.02,4.72-3.73.99-1.39,1.78-1.65,2.23-1.02,2.23-1.02"/>
</svg>