<?xml version="1.0" encoding="UTF-8"?>
<svg id="tracés" xmlns="http://www.w3.org/2000/svg" viewBox="0 0 160 160">
  <defs>
    <style>
      .cls-1 {
        fill: none;
        stroke: #7a1711;
        stroke-miterlimit: 10;
      }
    </style>
  </defs>
  <path class="cls-1" d="M88.45,47.99s8.14-12.16,8.64-16.41c.5-4.25.95-8.14-.29-9.27s-2.18-1.86-2.18-1.86c0,0,.41-1.35,1.86-.63s4.58,4.39,5.37,7.86,2.27,11.44,2.29,16.73c.02,5.29.45,14.21.45,14.21,0,0-4.28,6.26-4.74,9.87s-.63,4.9-.63,4.9l-10.77-25.4Z"/>
  <path class="cls-1" d="M109.9,144.45s.38-1.4-.02-4.05-.76-5.12-.76-5.12l-.31-17.6-.37-32.78.53-.6s.72-1.99.98-3.31-.28-3.3-.28-3.3c0,0,.66-1.26,1.38-3.38.72-2.12.45-3.9.45-3.9,0,0,.52-1.39,1.25-2.25s1.64-2.32,2.37-3.78c.72-1.46,5.19-7.69,5.91-9.21.72-1.52,2.83-4.57,4.01-5.17s5.2-5.18,6.52-6.97,7.17-4.27,9.26-4.22,2.81,1.31,3.42,1.31.88-1.49.79-3.41c-.09-1.92-2.84-1.39-1.99-2.63s.69-2.93.41-2.98-1.1.45-2.37.95-4.95,3.05-5.51,3.06-2.04.61-5.13.68-4.9,2.39-9.8,4.73-12.42,11.85-12.42,11.85c0,0-.46-5.29-.47-7.72,0-2.43.09-4.69-.54-10.54-.63-5.85-2.57-8.16-3.57-10.97-1-2.81-4.11-6.88-8.74-7.36s-2.03,3.7-4.84,2.83c-2.82-.87-4.14-.26-8.43,3.45-4.29,3.71-7.32,19.39-7.32,19.39,0,0-9.8,4.82-14.64,6.28s-12.25,4.41-18.34,5.39-13.01,7.83-19.09,12.87c-6.08,5.05-12.19,19.79-12.19,19.79,0,0-.24.9-.41,2.21s.14,4.19,3.61,4.77,1.74,1.67,4.97,1.24c3.23-.43,4.84-1.39,5.43-2.89.59-1.5,6.81-2.9,8.3-3.98s6.8-4.33,9.13-6.49c2.32-2.16,2.74-3.24,2.74-3.24,0,0-1,4.31-.58,5.74s1.69,3.04,1.99,3.04-2.79,4.56-3.44,7.25c-.65,2.69-1,3.35-1.06,4.43s-1.55,2.4-2.25,5.99-1.29,7.48-1.29,7.48c0,0-.21,9.09-.2,10.53s-.04,5.14.44,6.52c.48,1.37,1.2,2.27,1.21,2.69s-.71,1.62-.23,2.33.96,1.13.96,1.13c0,0-.11,1.56.61,2.03s5.75.7,8.97-.09,11.46-7.7,11.87-8.54,4.77-4.8,6.08-6.96,5.95-9.77,7.01-14.2c1.06-4.43,2.07-6.41,2.12-7.78s1.56.23,1.56.23c0,0,.87,8.91,2.62,11.65,0,0,2.13,9.32,4.47,11.65,2.34,2.32,2.82,3.1,5.58,5.72s1.63,2.87,3.6,3.58,4.48-1.33,5.9-5.47,1.59-5.93,1.59-5.93l.48,16.69s-.17,3.53-.34,4.97-.17,2.36-.17,2.36c0,0,3.64,8.22,8.59,0Z"/>
  <path class="cls-1" d="M60.32,56.56l7.85-8.36s-4.26,1.77-5.52,3.34c-1.26,1.57-2.33,5.03-2.33,5.03Z"/>
  <path class="cls-1" d="M85.42,50.66s.67,5.27-.44,8.94c-1.11,3.67-1.64,4.8-1.63,5.98,0,1.18-.41,1.24-.46,3.38s-.58,2.13-.58,3.67c0,1.54-.81,4.8-.81,4.8,0,0,6.42-9.05,6.4-13.38-.02-4.34.1-5.7-.62-8-.72-2.31-1.85-5.38-1.85-5.38Z"/>
  <path class="cls-1" d="M99.74,75.54s5.26,9.49,5.43,17.43c.17,7.94.74,16.43-.74,19.83s-2.76,5.99-2.76,5.99"/>
  <path class="cls-1" d="M58,62.74s-7.25,7.56-7.5,9.61c-.25,2.04-1.26,5.56,1.43,6.89s2.95,2.67,6.39,1.7,5.04-1.68,5.04-1.68c0,0-.94,5.69,3.41,7.65s4.73,2.6,7.67,1.95,4.39-3.66,4.39-3.66c0,0-1.06,5.62-1.05,8.56v2.94"/>
  <path class="cls-1" d="M75.56,41.35s6.97-1.14,11.14,4.34"/>
  <path class="cls-1" d="M104.59,60.5s-.23,6.07,0,10.56c.23,4.49-.57,2,.59,6.78l1.16,4.78"/>
  <path class="cls-1" d="M107.88,54.85s-.17.14,0,3.85c.17,3.71-.33,4.42,0,6.78s.55,2.43.56,4.99,0,3.64,0,3.64"/>
  <path class="cls-1" d="M53.07,81.91s-4.51,6.55-.43,8.96c4.08,2.4,6.29,1.78,7.16.44.87-1.34,3.12-5.26,3.12-5.26,0,0-1.3-3.5-.69-4.84s-4.42,2.11-6.79,1.41l-2.37-.7Z"/>
  <path class="cls-1" d="M48.56,73.79s-3.58,5.23-2.44,8.82,3.14.9,3.14.9l1.48-2.63s-2.23-4.32-2.19-7.1Z"/>
  <path class="cls-1" d="M68.08,88.65s-3.94,5.46.39,8.05c4.33,2.59,5.96-2.82,6.27-3.49s1.89-3.77,1.89-3.77c0,0-5.73,1.95-8.55-.79Z"/>
  <path class="cls-1" d="M65.29,69.75s-7.57-2.84-10.23,1.37c-2.65,4.22-3.06,4.86-2.65,5.87.41,1.01,1.14.97,1.14.97,0,0-.32,1.47.77,1.76s4.65.32,6.62-2.07,2.77-2.6,3.52-2.32,2.26-.17,1.96,2.94c-.3,3.11-.78,2.43-.45,4.13.33,1.7.5,3.23,1.91,3.39s1.98.24,1.98.24c0,0,.17,1.05.73,1.05s4.28-2.6,4.35-4.22c.07-1.62-1.46-1.49-1.46-1.49,0,0,2-6.52-8.21-11.62Z"/>
</svg>