<?xml version="1.0" encoding="UTF-8"?>
<svg id="tracés" xmlns="http://www.w3.org/2000/svg" viewBox="0 0 160 160">
  <defs>
    <style>
      .cls-1 {
        fill: none;
        stroke: #7a1711;
        stroke-miterlimit: 10;
      }
    </style>
  </defs>
  <path class="cls-1" d="M115.67,112.26c1.87-2.34,5.96-4.53,8.11-5.43s2.3-.5,4.24-.43,3.61-.46,4.47-.8,2.2-.81,3.61.34.76,2.35,1.31,3.95c.55,1.6-1.47,4.46-1.15,5.75s-.35,2.21-1.42,2.96c-1.07.75.69,1.41.94,2.56.25,1.15-2.18,1.53-2.18,2.45s-.86,1.37-1.86,1.91.35,1.46-1.17,2.28-2.34-.03-2.88-.47-.95.74-1.96,1.03-3.35-1.58-5.15-2.2-3.5-.03-4.43.41-3.23-.78-4.24-2.57.86-4.13,2.38-4.94.18-1.26-.79-1.72-.69-1.82-1.71-3.55c-1.02-1.73-6.91-11.64-8.77-15.69-1.86-4.05-1.75-5.5-2.65-9.96s-3.17-7.61-3.17-7.61c0,0-3.56-1.71-1.5-3.39,2.06-1.68,2.94-.91,4.83,1.11,1.9,2.02,3.89,3.72,6.08,4.69s5.64,2.63,8.23,5.29c2.59,2.66,7.39,7.14,9.44,10.32s1.6,2.57,3.26,4.36,1.8,1.99,1.8,1.99"/>
  <path class="cls-1" d="M116.15,126.56s3.42,3.85,3.15,9.21l-.27,5.36s1.35,2.29,1.58,3.76c.23,1.47,1.03,1.47.61,2.07s1.42,2.55,1,3.7.13,3-1.15,2.33-1.96.13-2.87-.43-2.54-.61-2.99-1.23-1.8,2.37-4.19.09l-2.39-2.29s-2.58.46-5.37-.75-3.73-1.81-3.73-1.81c0,0-2.11-1.08-2.54-1.65s-3.25.81-3.33.43.24-.93.58-1.11.84-.14-1.19-1.08-4.43-1.63-3.65-3.51,3.34-2.71,3.66-2.81-.25-3.8-2.26-4.93c-2.02-1.13-2.82-.34-6.51-2.3-3.69-1.96-4.61-1.04-5.81-3.65s-7.68,1.02-6.91-1.57c.77-2.58,2.17-2.84,4.25-4.69,2.08-1.85,3.62-7.02,3.74-9.55s-2.35-9.8-1.78-14.15.9-6.93.9-6.93c0,0-1.27-1.36-1.18-3.14s0-2.09,0-2.09l-1.77-.21s1.48,8.03-.89,11.65-2.8,5.93-5.52,6.97c-2.73,1.04-3.93,1.64-3.32,2.19s1.84-.1,2.02.58.01,2.54-1.17,2.57-3.96-.84-4.41-4.72c-.45-3.87,1.45-3.78,1.45-3.78l-.42-.7s-2.98,1.17-4.13-.89c-1.15-2.07-.97.52-1.81.6s-2.34-1.52-.74-3.9c1.6-2.38,1.07-1.81,1.07-1.81,0,0-3.37.95-4.67,1.58s-3.3-.06-5.19-1.25-3.76-2.33-3.44-5.14c.32-2.81,1.46-4.92,3.44-6.61s3.4-10.11,3.4-10.11c0,0,1.55-6.17,2.68-7.34s1.93-1.91,3.55-2.65"/>
  <path class="cls-1" d="M58.86,90.73c.31-.17,3.25-5,5.69-10.01,2.44-5.02-.95-15.6-.95-15.6,0,0-.59-.92,1.27-2.04,1.86-1.12,2.65-3.44,2.16-4.67-.48-1.22-.2-4.8-2.41-5.86s-3.14-1.37-2.92.71c.22,2.08-.43,3.15.05,4.92s.43,2.31.66,2.74-1.23.78-3.09.08-4.65.49-4.74.54-.27-3.12.47-3.8.93-.71.93-.71l-1.02-1.51s1.25-2.81,3.69-3.47,3.49-1.31,4.8-1.08,1.6.37,3.27.66,2.36.3,2.36.3c0,0-8.22-7.08-9.61-7.94-1.39-.86-1.65-1.02-1.65-1.02,0,0-1.55,1.38-2.63.14-1.09-1.24-.45-1.87-.32-1.95s-1.51-.41-2.24-.22-1.66.21-.37.6,1.83.84.85,1.26l-.98.41s1.71,1.94.02,4.52-2.49,3.41-2.49,3.41c0,0,1.77,5.4-.23,8.62-1.99,3.22-2.39,7.26-4.85,8.42s-5.65,3.93-7.96,1.09c-2.31-2.84-2.27-4.62-2.27-4.62,0,0,.19-.7.86-.7s1.04-1.19.92-1.41-1.43-.28-1.9-2.66c-.47-2.38-.69-2.94-.11-3.49s2.19-1.05,2.29-2.14c.1-1.09.81-5.22,1.33-6.34s.56-.98.86-1.9-.37-2.12.2-2.98-.92.74-.92.74c0,0,.52,2.51-.67,3.42s-4.12,2.44-5.24.28-.8-4.01-.54-4.39l.26-.39s-2.24-4.91-.99-7.91c1.25-2.99,2.07-3.24,2.45-3.66s.09-1.22.99-1.73,1.75-.99,1.75-.99l-1.41-.54s-.77,1.7-3.01,2.1-4.94-1.55-5.2-2.15-.46-1.84.36-2.71-1.59-.52-1.59-.52c0,0-1.82,1.05-3.5,1.13s-2.68-.92-4.15-.63-1.7.55-1.82.29.09-.46.68-.77,1.09-.63,1.77-.59.88.11.88.11c0,0-.27-.56,1.22-1.57,1.49-1,1.62-1.43,1.38-1.98s-.13-1.06-1.02-.74-2.17.8-3.03-.65c-.86-1.46-.91-1.95-.91-1.95l.26.03-.99-1.85.45-.24s-.88-2.05-.56-2.9-.19-1.9-.19-1.9l1.46,1.71s-.37-1.72-.32-2.46-.12-1-.12-1c0,0,.02.18.83.73s1.66.24,2.2,1.1.84,1.41.84,1.41c0,0-.08-1.68.37-2.64l.45-.95s-.33-.21.34,1.1,1.59,2.93,1.59,2.93c0,0,.47-.91,1.11-.84s1.2,1.06,1.3,1.25.35-1.09,1.25-1.46,1.71-.64,1.95-.14.05.66.05.66c0,0-.68-.35-1.2.12s-.36,2-.67,2.96-.32,1.87-.78,2.28-.05.82-.05.82c0,0,1.5-.12,2.03,1.9.53,2.02.43-.64,1.33-1.09s2.8.53,3.51,1.08l.71.55s-.91-.12-1.43.19-.42.39-.42.39c0,0,1.9.68,2.76,1.43s.89,1,1.46.94,3.72-1.71,3.72-1.71c0,0,1.36-.89,2.79-.31s2.04,1.76,2.19,2.06,1.83-1.6,2.72-1.83,3.08.27,3.54.74.55.72.55.72c0,0-1.31-.45-2.57-.05s-2.85.67-3.21,1.47-.08,1.33-.78,2.39c0,0-.57,1.29-.74,1.38s4.58,3.5,5.3,4.54,2.8,1.9,4.39,3.19,1.76,1.55,1.76,1.55c0,0,.1-.68.66-1.12s.87-.52.87-.52c0,0,1.39,2.55,1.73,3.13l.34.59.45-.13s-.76-1.37-.19-3.02c.57-1.65.83-4.44,1.45-4.77s.71-.87.87-.52.03.72.03.72c0,0-.3-.06.88-.55s1.47-.95,1.8-.69.19.77.79.76,1.36-.32,1.6.13.02,1.27.39,1.71.78.6,1.08,1.2.87.96.6,1.84-.58,2.14-1.58,3.25-1.08,1.62-2.24,2.16-1.1.75-1,.84.55.47.55.47l.19.25s1.85-1.56,3.62-2.04,3.18-1.01,4.45-1.15,1.41-.18,2.32.24,1.13.88,1.13.88c0,0-1.98-1.05-3.31-.34s-.69.45-2.22,1.27-2.43.94-3.29,1.37-.96.46-.96.46c0,0,.65,2.61,2.71,3.95,2.06,1.34-.15-.44,3.04,2.67s3.76,3.3,4.01,3.77-.25-1.24,1.61-1.9,2.33-.51,3.37-.98.52-1.07,1.72-.73.1.33,2.29.8,2.28.94,2.28.94c0,0,.45.23-.16.17s-.31-.74-2.19.21-1.09.12-2.53,1.21.1.03-1.44,1.1-1.9,1.32-1.9,1.32l.41.61s.15.28,1.6,1.72c1.45,1.44.35.91,1.89,1.84,1.54.93,1.62,1.13,2.83,2.49s1.37,1.38,1.37,1.38c0,0-.32-1.56.95-1.73s3.37,1.16,3.83,1.77.92,1.17.95,1.64-.45.71-.45.71c0,0-.55,0,.4.68s.65.83,1.28.93.8-.33.83.16-.67,1.05-1.51,1.03-1.47.47.14.82,2.03.3,2.03.3c0,0,.85-2.05,2.75-3.06s5.1-1.91,5.1-1.91c0,0,1.31,2.66,1.28,5.08-.02,2.42,4.07,2.32,4.07,2.32,0,0,2.14.61,2.81,1.02s-1.17.24-1.17.24c0,0,1.15.5.7,1.57s-.46,2.04-1.82,2.88c-1.36.84-1.02,1.2-2.7,1.69s-2.1.74-2.43.71-.85-.02-.85-.02"/>
  <path class="cls-1" d="M69.83,66.16s3.87,6.31,4.63,10.17.84,5.7.84,5.7"/>
  <path class="cls-1" d="M94.79,119.78s-1.59,3.36-.87,5c.72,1.65,3.24,5.91,3.81,6.84s1.03-7.31-.31-9.38-2.63-2.46-2.63-2.46Z"/>
  <path class="cls-1" d="M98.9,132.44s1.78,6.67-.97,8.77"/>
  <path class="cls-1" d="M98.9,145.02s-.16-.38,1.23-.42,1.94.04,2.6-.13,2.47.23,3.81-.06,2.88-.84,4.53-.82,2.76.17,3.78.32,1.36.44,2.39.69,2.29.6,2.42.68"/>
  <path class="cls-1" d="M98.5,120.56c.19,2.28,3.57,3.26,5.7,3.23,2.13-.03,1.38-1.13,2.43-1.85s1.4-1.38.58-2.93c-.82-1.54-.12-.81.48-1.29s-2.19-4.15-2.88-5.45-7.05-3.7-10.25-3.74c-3.2-.04-9.31,2.19-10.61,2.88s-3.92,2.33-4.56,3.94c-.65,1.62,4.5.69,4.5.69,0,0-.1,2.91,2.6,3.14s3.54.63,4.96,0,2.25-1.63,1.92-3.12-.72-3.18-1.19-3.81"/>
  <path class="cls-1" d="M82.6,110.03s2.3-5.67.37-10.31c-1.93-4.64-4.3-10.63-4.3-10.63"/>
  <path class="cls-1" d="M82.36,71.68s-.74,1.56.22,3.37,4.61,5.69,6.9,8.32,6.37,6.94,8.42,9.88,3.92,6.72,4.97,9.4,4.73,6.63,5.81,8.85c1.07,2.22,3.59,6.05,3.9,7.36l.31,1.31"/>
  <path class="cls-1" d="M135.62,117.94l7.59,10.27s3.44,3.88,4.08-.57l-10.65-14.02"/>
  <ellipse class="cls-1" cx="120.11" cy="110.52" rx=".68" ry=".78" transform="translate(-37.74 69) rotate(-27.88)"/>
  <ellipse class="cls-1" cx="121.52" cy="121.05" rx=".86" ry=".5" transform="translate(-42.5 70.88) rotate(-27.88)"/>
  <circle class="cls-1" cx="123.55" cy="119.58" r=".52"/>
  <ellipse class="cls-1" cx="122.97" cy="115.99" rx=".98" ry=".6" transform="translate(-39.97 70.97) rotate(-27.88)"/>
  <ellipse class="cls-1" cx="122.53" cy="111.19" rx=".5" ry=".94" transform="translate(-37.77 70.21) rotate(-27.88)"/>
  <circle class="cls-1" cx="124.32" cy="109.59" r=".37"/>
  <circle class="cls-1" cx="123.03" cy="109.08" r=".31"/>
  <ellipse class="cls-1" cx="117.88" cy="111.92" rx=".73" ry=".41" transform="translate(-38.65 68.12) rotate(-27.88)"/>
  <circle class="cls-1" cx="129.1" cy="119.06" r=".58"/>
  <circle class="cls-1" cx="127.15" cy="119.1" r=".74"/>
  <ellipse class="cls-1" cx="129" cy="113.35" rx=".41" ry=".73" transform="translate(-38.03 73.48) rotate(-27.88)"/>
  <ellipse class="cls-1" cx="126.75" cy="111.1" rx=".77" ry=".22" transform="translate(-37.24 72.17) rotate(-27.88)"/>
  <circle class="cls-1" cx="118.54" cy="113.53" r=".56"/>
  <circle class="cls-1" cx="120.44" cy="118.76" r=".49"/>
  <circle class="cls-1" cx="117.93" cy="116.45" r=".39"/>
  <ellipse class="cls-1" cx="119.26" cy="114.88" rx=".56" ry=".38" transform="translate(-39.88 69.1) rotate(-27.88)"/>
  <circle class="cls-1" cx="125.68" cy="107.12" r=".39"/>
  <ellipse class="cls-1" cx="130.41" cy="111.17" rx=".61" ry=".78" transform="translate(-36.85 73.89) rotate(-27.88)"/>
  <circle class="cls-1" cx="123.37" cy="114" r=".57"/>
  <ellipse class="cls-1" cx="121.72" cy="114.68" rx=".68" ry=".41" transform="translate(-39.5 70.24) rotate(-27.88)"/>
  <circle class="cls-1" cx="120.87" cy="113.35" r=".36"/>
  <ellipse class="cls-1" cx="125.17" cy="118.18" rx=".93" ry=".33" transform="translate(-40.73 72.25) rotate(-27.88)"/>
  <ellipse class="cls-1" cx="124.85" cy="115.29" rx=".49" ry=".51" transform="translate(-39.42 71.77) rotate(-27.88)"/>
  <circle class="cls-1" cx="120.37" cy="117.07" r=".52"/>
  <ellipse class="cls-1" cx="124.65" cy="111.9" rx=".42" ry=".68" transform="translate(-37.86 71.28) rotate(-27.88)"/>
  <ellipse class="cls-1" cx="129.42" cy="108.42" rx="1.03" ry=".57" transform="translate(-35.68 73.11) rotate(-27.88)"/>
  <ellipse class="cls-1" cx="127.13" cy="108.12" rx=".38" ry=".56" transform="translate(-35.8 72) rotate(-27.88)"/>
  <ellipse class="cls-1" cx="125.99" cy="108.84" rx=".38" ry=".66" transform="translate(-36.27 71.55) rotate(-27.88)"/>
  <circle class="cls-1" cx="128.12" cy="116.7" r=".41"/>
  <circle class="cls-1" cx="127.13" cy="114.58" r=".52"/>
  <ellipse class="cls-1" cx="99.45" cy="114.85" rx=".6" ry=".88" transform="translate(-42.16 59.84) rotate(-27.88)"/>
  <ellipse class="cls-1" cx="96.65" cy="114.59" rx=".45" ry=".65" transform="translate(-42.37 58.5) rotate(-27.88)"/>
  <circle class="cls-1" cx="97.22" cy="109.99" r=".3"/>
  <ellipse class="cls-1" cx="99.09" cy="110.52" rx=".6" ry=".39" transform="translate(-40.18 59.17) rotate(-27.88)"/>
  <ellipse class="cls-1" cx="102.22" cy="116.74" rx=".46" ry=".78" transform="translate(-42.73 61.35) rotate(-27.88)"/>
  <path class="cls-1" d="M101.9,114.55l.26-.14.26-.14-.26.14-.26.14Z"/>
  <ellipse class="cls-1" cx="99.81" cy="112.97" rx=".6" ry=".39" transform="translate(-41.24 59.79) rotate(-27.88)"/>
  <ellipse class="cls-1" cx="102.32" cy="112.79" rx=".6" ry=".41" transform="translate(-40.87 60.94) rotate(-27.88)"/>
  <circle class="cls-1" cx="98.08" cy="111.63" r=".3"/>
  <ellipse class="cls-1" cx="101.24" cy="118.56" rx=".45" ry=".68" transform="translate(-43.69 61.11) rotate(-27.88)"/>
  <circle class="cls-1" cx="104.16" cy="115.07" r=".57"/>
  <circle class="cls-1" cx="98.61" cy="116.19" r=".3"/>
  <ellipse class="cls-1" cx="100.95" cy="110.85" rx=".89" ry=".65" transform="translate(-40.12 60.08) rotate(-27.88)"/>
  <ellipse class="cls-1" cx="111.32" cy="146.13" rx=".55" ry="1.25" transform="translate(-55.42 69.02) rotate(-27.88)"/>
  <ellipse class="cls-1" cx="114.85" cy="149.39" rx=".49" ry=".78" transform="translate(-56.53 71.05) rotate(-27.88)"/>
  <circle class="cls-1" cx="116.31" cy="145.89" r=".49"/>
  <circle class="cls-1" cx="114.57" cy="146.32" r=".43"/>
  <ellipse class="cls-1" cx="112.63" cy="144.9" rx=".62" ry=".31" transform="translate(-54.69 69.49) rotate(-27.88)"/>
  <circle class="cls-1" cx="118.09" cy="148.91" r=".65"/>
  <ellipse class="cls-1" cx="116.19" cy="147.83" rx=".52" ry=".23" transform="translate(-55.65 71.5) rotate(-27.88)"/>
  <circle class="cls-1" cx="113.41" cy="147.42" r=".49"/>
  <circle class="cls-1" cx="118" cy="145.86" r=".27"/>
  <circle class="cls-1" cx="115.14" cy="144.76" r=".51"/>
  <path class="cls-1" d="M46.45,37.49s.49.52.64,1.65.96-.06.96-.06l.19-2.06-1.79.47Z"/>
  <polygon class="cls-1" points="50.31 37.74 50.22 38.83 52.43 38.45 50.31 37.74"/>
  <path class="cls-1" d="M38.48,33.93s.41.28.66,2.33.19,2.32.19,2.32c0,0,1.24-1.39,2.63-1.9s3.05-1.28,4.79-1.42,1.63-.4,1.63-.4c0,0-4.25-1.67-5.47-2.8-1.22-1.13-.11-1.02-1.76-1.28s-2.67-.18-2.67-.18c0,0,.29.6.9,1.8s-.17.82.79,1.48.46,1.13,1.84.71,1.52-.49,1.52-.49c0,0,1.07-.78.09.33-.98,1.11-1.07,1.94-2.12,1.54s-3.02-2.04-3.02-2.04Z"/>
  <path class="cls-1" d="M38.01,62.29s1.43.29,4.16-2.2c2.73-2.49,3.75-4.1,3.68-5.28"/>
  <path class="cls-1" d="M31.74,40.67l1.96,2.03s1.21-.46,1.6-1.45c.4-.99.61-.96.61-.96,0,0,.44.74,1.13,1.48l.69.75s.39-.64.86-1.48"/>
  <path class="cls-1" d="M39.8,46.57l1.03,1.04,1.67-1.4s1.14,1.71,1.42,2.23l.28.52s1.24,0,1.81-.96c.57-.95.42,3.46.42,3.46,0,0,1.49,0,2.15-.26"/>
  <path class="cls-1" d="M77.28,68.12s-1.29,3.17-.37,7.64c.92,4.47,1.03,4.06.95,5.36s-.05,1.54-.05,1.54"/>
  <path class="cls-1" d="M72.29,58.12s1.51,1.84,1.47,3.53-.33,2.14-.33,2.14l.42.8s.1-.62,2.17.28,2.39,1.45,2.39,1.45c0,0,1.62-1.36,3.45-1.46s-6.27-7.84-7.69-7.39-1.88.66-1.88.66Z"/>
  <path class="cls-1" d="M85.76,70.58l1.67,3.16s.15-.55,1.64-.17,2,.61,2,.61c0,0-1.2-2.32-2.84-3.28-1.64-.96-2.47-.32-2.47-.32Z"/>
  <path class="cls-1" d="M86.58,76.55l1.03,1.52s1.57-.58,1.93-1.24-2.97-.28-2.97-.28Z"/>
  <path class="cls-1" d="M95.82,90.56s1.04.54,4.6-2.1"/>
</svg>