<?xml version="1.0" encoding="UTF-8"?>
<svg id="tracés" xmlns="http://www.w3.org/2000/svg" viewBox="0 0 160 160">
  <defs>
    <style>
      .cls-1 {
        fill: none;
        stroke: #7a1711;
        stroke-miterlimit: 10;
      }
    </style>
  </defs>
  <path class="cls-1" d="M144.45,22.58c-12.35-8.78-29.19,4.47-29.19,4.47-20.37-25.21-63.67-4.77-67.04-4.44-3.38.34-15.6-5.06-25.4-2.74-9.8,2.33-10.88,5.05-11.03,22.27-.15,17.22,19.96,33.82,25.42,36.74,5.46,2.92,13.97,5.07,20.41,8.86,6.44,3.79,4.47,1.18,6.17-4.71,1.7-5.89-.32-3.81,0-6.54s2.16-5.02,1.71-8.18c-.45-3.16.85-7.46.85-7.46,0,0,2.03-.25,5.3-.8h0c24.95,5.95,63.18-15,63.18-15,0,0,21.96-13.71,9.62-22.49Z"/>
  <path class="cls-1" d="M90.28,60.49s7.09,22.6,10.45,26.24c3.36,3.63,3.81,1.81,4.27,5.45.47,3.64,7.29,40.84,8.54,49.95,0,0,6.37,8.54,8.9-1.49l-6.72-48.5s.6-.24,5.77-9.22c5.17-8.97,3.11-10.06,2.85-15.26-.26-5.2-1.73-8.95-2.1-12.7-.38-3.75.65-4.21.65-4.21"/>
  <path class="cls-1" d="M55.42,31.89s17.5,9.21,32.63,9.27,38.3-9.41,42.75-11.88"/>
  <path class="cls-1" d="M115.26,27.05s-5.95,5.29-8.95,11.24"/>
  <path class="cls-1" d="M122.25,54.97s-3.72,10.41-2.56,17.03c1.16,6.62,2.81,9.14,2.81,9.14"/>
  <path class="cls-1" d="M114.88,53.97s1.26,27.88.85,31.9c-.41,4.01,0,6.28,0,6.28"/>
  <path class="cls-1" d="M106.15,89.53s2.57,1.26,7.62-.39"/>
  <path class="cls-1" d="M91.14,41.06s-3.63-9.79,0-11.19,6.48,10.37,6.48,10.37"/>
</svg>