<?xml version="1.0" encoding="UTF-8"?>
<svg id="tracés" xmlns="http://www.w3.org/2000/svg" viewBox="0 0 160 160">
  <defs>
    <style>
      .cls-1, .cls-2 {
        fill: none;
        stroke: #7a1711;
        stroke-miterlimit: 10;
      }

      .cls-2 {
        stroke-width: .5px;
      }
    </style>
  </defs>
  <path class="cls-1" d="M64.66,54.51s.17-8.79,3.46-11.82"/>
  <path class="cls-1" d="M81.67,24.95s20.96-14.17,31.53-14.21,8.77,4.09,8.77,4.09c0,0,3.79-2.99,6.28.64s2.97.15,3.82,5.27c.84,5.11.52,6.93,2.52,12.87,2,5.94.7,9.74.7,9.74,0,0,1.97,1.65.42,4.46s-4.18,4.97-4.83,8.11-3.6,10.05-11.86,8.45-18.67-3.38-25.77-3.19c0,0-8.15-.63-8.81-.55"/>
  <path class="cls-1" d="M32.95,59.31s-7.32-1.89-13.16,11.32c-5.84,13.21-7.86,21.93-6.56,26.28,1.3,4.35,3.09,3.57,2.46,7.16-.63,3.59-1.39,5.38-.1,7.04,1.29,1.66,6.56,8.43,12.46,10.07,5.9,1.64,10.77,2.65,15.37,1.1s3.94-8.85,3.93-12.05c-.01-3.2-.28-5.51.74-7.69,1.02-2.18,2.91-9.36,3.26-18.07.35-8.71,5.23-5.66,5.34-10.78.11-5.12-2.71-8.46-7.21-9.33l-4.5-.88"/>
  <path class="cls-1" d="M39.72,123.01s1.47,18.11,11.47,22.43,10.9,2.65,14.1,1.87,7.05,2.41,10,1.88,15.1-3.13,20.2-10.96,6.48-14.37,1.84-21.91c-4.64-7.54-7.08-9.2-13-16.86,0,0-5.14-6.13-5.52-7.26-.38-1.13,1.83-1.24,1.83-1.24,2.6,2.18,3.64,4.34,6.95,8.61,3.3,4.27,14.72,18.28,19.3,17.96s3.26.37,10.37,2.32c7.11,1.95,13.83-11.11,16.95-15.09s.64-4.79,3.44-7.94c2.79-3.15.31-4.62,2.03-8.52,1.72-3.89-.26-5.19.71-9.16.98-3.97,2.95-5.95,3.91-13.22s-5.33-11.7-7.99-13.84-.59-4.29-.59-4.29"/>
  <path class="cls-1" d="M64.66,54.51s-1.62-.65-2.56.99c0,0-4.97-5.25,4.27-11.52,9.24-6.27,17.81-21.79,18.43-27.71.62-5.91-.99-8.78-10.89-6.99-9.9,1.79-13.26-.27-15.17,1.97s-3.66,4.81-6.05,6.25-8.28,7.06-10.18,12.18c-1.9,5.12-9.89,2.75-10,17.13-.11,14.38.39,18.37,5.98,17.39,5.59-.98,5.47-.39,6.49-.74s1.26-2.69,3.65-2.65,5.52.93,5.84,2.53c0,0-1.93.6-1.78,2.21"/>
  <ellipse class="cls-2" cx="67.36" cy="72.27" rx="2.49" ry=".97" transform="translate(-28.91 94.47) rotate(-60)"/>
  <ellipse class="cls-2" cx="69.62" cy="63.07" rx="2.49" ry=".97" transform="translate(-24.21 67.7) rotate(-45)"/>
  <ellipse class="cls-2" cx="74.91" cy="70.58" rx="2.49" ry=".97" transform="translate(-2.41 138.51) rotate(-84.6)"/>
  <ellipse class="cls-2" cx="72.6" cy="70.36" rx="2.49" ry=".97" transform="translate(-4.28 136.02) rotate(-84.6)"/>
  <ellipse class="cls-2" cx="70.07" cy="67.57" rx="2.49" ry=".97" transform="translate(-3.8 130.97) rotate(-84.6)"/>
  <ellipse class="cls-2" cx="68.12" cy="67.39" rx="2.49" ry=".97" transform="translate(-5.38 128.86) rotate(-84.6)"/>
  <ellipse class="cls-2" cx="76.59" cy="66.14" rx="2.49" ry=".97" transform="translate(-10.57 14.73) rotate(-10.28)"/>
  <ellipse class="cls-2" cx="86.11" cy="64.13" rx="2.49" ry=".97" transform="translate(-10.06 16.39) rotate(-10.28)"/>
  <ellipse class="cls-2" cx="82.32" cy="57.29" rx=".97" ry="2.49" transform="translate(-8.45 99.93) rotate(-60)"/>
  <ellipse class="cls-2" cx="81.64" cy="59.3" rx=".97" ry="2.49" transform="translate(-10.54 100.35) rotate(-60)"/>
  <ellipse class="cls-2" cx="80.63" cy="65.12" rx=".97" ry="2.49" transform="translate(-16.08 102.39) rotate(-60)"/>
  <ellipse class="cls-2" cx="56.88" cy="79.35" rx=".97" ry="2.49" transform="translate(-40.28 88.93) rotate(-60)"/>
  <ellipse class="cls-2" cx="61.76" cy="63.29" rx=".97" ry="2.49" transform="translate(-23.93 85.13) rotate(-60)"/>
  <ellipse class="cls-2" cx="64" cy="59.3" rx=".97" ry="2.49" transform="translate(-16.53 25.72) rotate(-20.18)"/>
  <ellipse class="cls-2" cx="75.81" cy="64.13" rx="2.49" ry=".97" transform="translate(-10.23 14.56) rotate(-10.28)"/>
  <ellipse class="cls-2" cx="74.13" cy="74.88" rx="2.49" ry=".97" transform="translate(-12.17 14.43) rotate(-10.28)"/>
  <ellipse class="cls-2" cx="73.87" cy="77.18" rx="2.49" ry=".97" transform="translate(-12.59 14.42) rotate(-10.28)"/>
  <ellipse class="cls-2" cx="79.66" cy="85.36" rx="2.49" ry=".97" transform="translate(-13.95 15.58) rotate(-10.28)"/>
  <ellipse class="cls-2" cx="79.26" cy="83.17" rx="2.49" ry=".97" transform="translate(-13.57 15.48) rotate(-10.28)"/>
  <ellipse class="cls-2" cx="73.35" cy="80.73" rx="2.49" ry=".97" transform="translate(-13.23 14.38) rotate(-10.28)"/>
  <ellipse class="cls-2" cx="74.13" cy="82.56" rx="2.49" ry=".97" transform="translate(-13.54 14.55) rotate(-10.28)"/>
  <path class="cls-2" d="M78.65,78.23c0-1.38-.43-2.49-.97-2.49s-.97,1.12-.97,2.49.43,2.49.97,2.49.97-1.12.97-2.49Z"/>
  <path class="cls-2" d="M80.63,78.23c0-1.38-.43-2.49-.97-2.49s-.97,1.12-.97,2.49.43,2.49.97,2.49.97-1.12.97-2.49Z"/>
  <ellipse class="cls-2" cx="83.28" cy="81.46" rx=".97" ry="2.49" transform="translate(-31.7 62.74) rotate(-35.12)"/>
  <ellipse class="cls-2" cx="84.92" cy="80.35" rx=".97" ry="2.49" transform="translate(-30.76 63.48) rotate(-35.12)"/>
  <ellipse class="cls-2" cx="90.41" cy="85.58" rx="2.49" ry=".97" transform="translate(-22.03 139.02) rotate(-68.85)"/>
  <ellipse class="cls-2" cx="84.92" cy="87.33" rx=".97" ry="2.49" transform="translate(-13.51 159.1) rotate(-81.9)"/>
  <ellipse class="cls-2" cx="81.83" cy="74.88" rx="2.49" ry=".97" transform="translate(-17.53 124.18) rotate(-68.85)"/>
  <ellipse class="cls-2" cx="72.6" cy="87.33" rx="2.49" ry=".97" transform="translate(-35.05 123.53) rotate(-68.85)"/>
  <ellipse class="cls-2" cx="65.58" cy="83.58" rx="2.49" ry=".97" transform="translate(-40.58 79.49) rotate(-49.67)"/>
  <ellipse class="cls-2" cx="67.36" cy="84.98" rx="2.49" ry=".97" transform="translate(-41.02 81.34) rotate(-49.67)"/>
  <ellipse class="cls-2" cx="68.12" cy="61.78" rx="2.49" ry=".97" transform="translate(-23.74 66.26) rotate(-45)"/>
  <ellipse class="cls-2" cx="60.02" cy="74.88" rx="2.49" ry=".97" transform="translate(-34.84 89.42) rotate(-60)"/>
  <ellipse class="cls-2" cx="58.24" cy="73.85" rx="2.49" ry=".97" transform="translate(-34.84 87.37) rotate(-60)"/>
  <ellipse class="cls-2" cx="65.63" cy="71.27" rx="2.49" ry=".97" transform="translate(-28.91 92.47) rotate(-60)"/>
  <ellipse class="cls-2" cx="72.32" cy="57" rx=".97" ry="2.49" transform="translate(-5.29 7.44) rotate(-5.68)"/>
  <ellipse class="cls-2" cx="86.11" cy="75.74" rx=".97" ry="2.49" transform="translate(-7.08 8.9) rotate(-5.68)"/>
  <ellipse class="cls-2" cx="91.69" cy="70.58" rx="2.49" ry=".97" transform="translate(-15.28 114.69) rotate(-60)"/>
  <ellipse class="cls-2" cx="90.18" cy="69.06" rx="2.49" ry=".97" transform="translate(-14.71 112.63) rotate(-60)"/>
  <ellipse class="cls-2" cx="78.69" cy="69.06" rx="2.49" ry=".97" transform="translate(-20.46 102.68) rotate(-60)"/>
  <ellipse class="cls-2" cx="79.66" cy="71.27" rx="2.49" ry=".97" transform="translate(-21.89 104.62) rotate(-60)"/>
  <ellipse class="cls-2" cx="63.97" cy="78.23" rx=".97" ry="2.49" transform="translate(-36.58 68.15) rotate(-45)"/>
  <ellipse class="cls-2" cx="62.52" cy="79.69" rx=".97" ry="2.49" transform="translate(-38.03 67.55) rotate(-45)"/>
</svg>