<?xml version="1.0" encoding="UTF-8"?>
<svg id="tracés" xmlns="http://www.w3.org/2000/svg" viewBox="0 0 160 160">
  <defs>
    <style>
      .cls-1 {
        fill: none;
        stroke: #7a1711;
        stroke-miterlimit: 10;
      }
    </style>
  </defs>
  <path class="cls-1" d="M62.94,106.96s.96-2.83,2.4-4.03c1.44-1.2,3.01-2.21,3.01-2.21,0,0,.65-1.92,2.59-3.72s4.2-1.99,5.58-2,1.93,2.57,3.06,3.44,3.14,1.21,3.65,1.21,2.55,2.35,3.28,4.7-2.19,2.68-2.19,2.68c0,0,.47.78.79,1.94s.45,3.58-1.67,6.29-5.7.98-5.7.98c0,0-2.72,3.11-6.64,2.44s-3.4-6.28-3.4-6.28c0,0-2,.37-3.78-.62-1.78-1-1.06-4.05-1.06-4.05l-3.97-.4s-.04,2.05-1.67,4.11c-1.63,2.06-5.24,1.2-5.24,1.2,0,0-.14.27-.82.53s-3.64.72-6.43,0-3.16-4.53-3.16-4.53c0,0-1.18.13-3.05,0s-4.74-1.12-5.25-1.3-5.99-4.67-5.99-4.67l-1.78-.72s-1.68,1.56-3.54,2.88-7.51,1.62-8.74,1.4-6.44-4.49-7.18-5.4c-.73-.91-.69-2.37.94-3.56s1.99-3.02,1.99-3.02c0,0-.28-.77-.28-1.32,0-.55,1.91-.78,1.91-.78l-1.05-.91s-.23-.87-.23-1.41,1.05.13.91-1.23.26-4.47.34-5.24,2.41-.65,2.41-.65c0,0,.36-1.19,3.28-1.2s4.43,1.58,4.43,1.58c0,0-.14-1.32-.14-1.87s.19-.58,3.78,1.14,4.91,7.58,4.91,7.58c0,0,4.56-.23,9-.36s5,2.26,6.63,2.9.87-.11,4.23-.78,4.35,1.83,5.43,2.35,5.42,0,5.42,0c0,0-1.54-5.09-2.2-7.59-.66-2.49-2.29-2.7-4.46-4-2.17-1.29-6.31-5.84-9.04-9.95s-1.25-15.73-1.25-15.73c0,0-4.66.23-8.55-5.59-3.89-5.82-4.45-7.87-4.45-7.87,0,0-.16-1.26.15-1.26s2.92,1.25,3.71.85.37-6.55.76-7.73,1.41-2.69,2.28-2.69,1.34.15,1.34.15c0,0,.54-2.21,3.07-1.59s3.71,1.8,4.19,2.27.95,1.02.95,1.02c0,0,.54-1.89,2.52-1.59s-3.1-6.85-.82-8.28c2.28-1.43,5.76,1.32,6,2.82s1.12,3.62,2.94,4.96c1.82,1.33-4.05-7.95-1.78-11.9,2.27-3.95,4.25-3.64,4.25-3.64,0,0-.24-.71,1.57-1.27s6.79,1.95,7.67,4.47,4.32-3.57,7.64-2.95,2.53,2.12,2.53,2.12c0,0,3.15-.88,3.96,3.85.81,4.73.01,3.79.01,3.79,0,0,.94-1.34,1.74.94q.8,2.28.8,2.28s3.79.06,3.01,3.54c-.78,3.47-1.86,7.89-5.33,10.12-3.46,2.22-4.56,2.94-6.93,3.26s-4.72,2.38-7.33,1.29-7.2-6.05-7.2-6.05l-1.99-3.54"/>
  <path class="cls-1" d="M98.81,98.94s2.96-5.12,4.83-4.64,1.65,1.49,1.24,2.01-2.89,3.44-2.89,3.44c0,0,1.87.78,2.13,1.97.27,1.19.01,3.24.01,3.24,0,0-1,2.5-2.91.91s-2.84-2.34-2.85-3.53.43-3.4.43-3.4Z"/>
  <path class="cls-1" d="M104.16,93.67c3.32-.24,3.43-.57,4.7.39s1.24,2.9,1.21,3.61,2.47,1,2.51,2.49c.04,1.49.39,3.28-1.48,4.07s-1.9.6-1.9.6c0,0,1.87,1.6.05,2.35s-5.67-.31-5.67-.31"/>
  <path class="cls-1" d="M23.85,101.78s-6.3,1.69-7.07-.28c-.76-1.97,1.24-4.75,1.24-4.75l-.26-2.98s-2.67.33-3.99,0-1.82-.58-1.82-.58"/>
  <path class="cls-1" d="M22.12,84.22s4.51,3.77,5.12,5.53c.61,1.76-.45,1.67-.45,1.67,0,0-1.06-.05-1.06,1.32,0,1.36-.09,2.47-.09,2.47,0,0-1.73.66-1.79,2.08-.06,1.41,0,2.57,0,2.57"/>
  <path class="cls-1" d="M61.93,43.92s-3.97.52-6.94-2.37c-2.97-2.89,3.04,4.84.41,7.88s-3.77,2.98-3.77,2.98c0,0,.51,2.52.52,3.28,0,0,2.67-.42,3.04,2.35s6.75-14.11,6.75-14.11Z"/>
  <path class="cls-1" d="M78.04,46.49s-.04,16.42-5.52,24.61l-5.48,8.19s-.24,5.61,0,9.05c.24,3.44.94,5.61,1.24,6.59s2.66,2.08,2.66,2.08"/>
  <path class="cls-1" d="M44.42,93.32s-.1.35,0,1.23-2.99,1.46-3.55,3.89c-.56,2.42-1.39,4.45-.38,5.64s1.72,1.84,1.72,1.84c0,0,1.5-.61,2.2,0s-.39,2.46,1.51,2.63,3.78-2.22,4.79-1.91-1,2.95,1.03,3.74,3.83.43,4.62-.46"/>
  <path class="cls-1" d="M55.26,94.99s-.42.79,1.11,1.41,4.53-.06,4.67,3.24c.14,3.3.19,4.1-.55,5.29"/>
  <path class="cls-1" d="M100.24,128.29s-.15-1.65-.35-3.56-.53-1.49-1.79-2.82c-1.25-1.34-1.83-2.44-2.99-3.64s-.53-.96-1.31-4.36-6.01-3.67-6.01-3.67l6.72-.36"/>
  <path class="cls-1" d="M44.3,56.16s-1.25,1.81,1.15,3.94,2.39-.6,2.7,2.63c.31,3.23,0,5.71,0,5.71"/>
  <path class="cls-1" d="M73.94,95.34s3.73-3.75,3.8-6.41-.88-4.22.29-5.59,1.66-3.28,1.94-5.85c.28-2.57,2.06-5.93,3.55-6.29s4.55-1.94,7-1.86,1.12-4.56,1.55-6.66.42-4.2,1.91-4.34,2.02,1.35,3.33.47,2.78-2.38,4.45-2.38,4.6-1.33,6.34,1.03.97,6.56.97,6.56c0,0,3.94-.89,5.08,1.03s3.52,4.98,1.52,7.87c-2,2.9-3.04,3.07-3.04,3.07,0,0,2.44.52,1.22,2.45s-7.16,5.37-10.85,3.02c-3.69-2.35-3.76.45-6.84-2.16-3.07-2.62-4.4-6.73-4.4-6.73,0,0-1.52,3.36-3.97,4.69s-7.26,3.13-8.25,5.85c-1,2.72-.68,5.35-.68,5.35,0,0,.62-.08.4,2.87s-.06,4.65-.06,4.65"/>
  <path class="cls-1" d="M39.89,51.75s-1.04-1.51.47-1.42,6.74,2.33,6.74,2.33"/>
  <path class="cls-1" d="M123.23,102.25s3.14.06,8.52,2.06c5.39,2,8.32,8.63,12.95,8.39s-5.02-2.97-.46-2.69,3.66-.16,6.33-4.8-7.12-5.43-3.83-5.96,4.77-3.83,4-8.38-9.12-1.76-9.12-1.76l1.27-1.2s3.35-2.78,4.61-5.17-3.6-3.27-3.6-3.27c0,0,3.94-4.65,1.98-9.12-1.96-4.47-8.38-2.66-8.38-2.66,0,0,3.34-6.29,2.51-7.25s-3.74-1.33-8.21,1.82c-4.47,3.15-5.79,10.7-5.79,10.7l-5.45,1.66.91-2.51-5.83.8"/>
  <path class="cls-1" d="M116.98,90.1l12.52-8.64s-.37,2.17,2.4,2.98,9.34,1.79,9.34,1.79c0,0-7.56,10.34-12.13,9.11s-12.13-5.24-12.13-5.24Z"/>
  <path class="cls-1" d="M95.19,58.58s3.12-5.08,7.62-7.94,7.21-5.27,7.21-5.27l.54,1.39s2.19-.03,2.46.78-1.45,3.95-1.45,3.95l5.15-3.52s-.28-4.9,2.06-9.73c2.35-4.82,3.39-7.02,4.26-7.37s1.49.17,1.49.61,3.24-.71,4.55-.02,1.67,2.1,1.67,2.1c0,0,2.19-.97,3.07.69s-.49,8.41-.49,8.41c0,0,4.55-.98,6.05,1.73,1.5,2.71.45,2.11.45,2.11,0,0,3.76-.38-.94,6.47s-16.36,2.69-16.36,2.69l-9.11,8.68"/>
  <path class="cls-1" d="M99.56,123.32l17.17.54-1.62-1.31-.82.47s-5.88.16-6.49-.88,2.7-.91,3.69-.82,3.98,1.17,4.89,2.02,1.97,6.11,3.86,7.09,2.61.46,3.98,1.03,3.28,2.69,5.55,2.73,3.08-1.2,3.07-1.86-.58-1.75-2.33-2.93,2.89.04,4.12-1.44c1.23-1.47,4.73-2.91,3.34-5.65s-2.15-3.59-3.1-4.06,2.46-.91,1.22-2.23-3.75-2.36-4.61-2.35-5.54.78-8.49,2.16-14.91-8.38-14.91-8.38"/>
  <ellipse class="cls-1" cx="75.1" cy="105.44" rx="2.93" ry="2.01"/>
  <ellipse class="cls-1" cx="53.21" cy="102.45" rx="2" ry="2.48" transform="translate(-27.79 20.19) rotate(-17.11)"/>
  <path class="cls-1" d="M55.72,59.75s-.63,9.74,3.09,14.37,3.53,5.11,3.72,6.91c.2,1.8,3.2,19.31,3.2,19.31"/>
  <path class="cls-1" d="M99.97,80.43s-1.22,1.5-1.6,2.67-3.6,3.37-6.85,5.35c-3.24,1.97-7.84.63-7.78,2.55.06,1.92-2.43,6.01-2.43,6.01,0,0,3.83-2.62,6.47-4.52s-.69-1.28,3.17-2.28,2.8.37,5.97-1.76,4.07-3.57,6.11-3.58,7.7-.03,9.59-1.85,7.32-6.23,7.32-6.23"/>
  <path class="cls-1" d="M65.9,112.43s.79.09,1.32,3.99.76,5.26,1.06,11.14c.3,5.88.33,11.65.33,11.65,0,0,1.99,3.39,6.39-.25,0,0-.92-18.16.38-18.9s3.97-3.34,3.97-3.34c0,0,.31,8.71,6.12,12.31s7.19,2.61,7.86,4.12-.11,6.06.43,7.97c.53,1.91,2.26,4.87,2.99,5.85.73.99.95,1.97,4.24,1.73s3.66-2.37,3.76-3.96.38-1.92,1.31-1.92,1.98,3,4,1.46c2.02-1.54,1.3-4.17,1.3-4.17,0,0,3.45,1.14,1.8-2.03s-2.31-3.22-2.31-3.22c0,0,4.98-.62.64-3.73-4.34-3.11-11.24-2.86-11.24-2.86,0,0-4.22-1.9-4.72-2.89s-1.86.39-1.85,2.69c0,2.3.34,4,.34,4"/>
  <path class="cls-1" d="M131.75,104.31s-1.31,1.18-6.87,1.39c-5.55.21-7.81.95-10.98.7s-3.87-.25-3.87-.25"/>
  <path class="cls-1" d="M112.63,103.78s4.26.7,5.78-.89,1.37-2.1.76-2.45-.52-1.68-.37-1.94,2.29-3.21-.27-3.06-4.23,1.49-4.53,2.46"/>
  <path class="cls-1" d="M100.95,107.45s-.16,2.93,0,3.73,5.89.27,6.11,2.37c.23,2.1.74,2.82-1.08,2.4s-2.41-.72-2.41-.72c0,0,.97,1.16,1.98,2.46,1.02,1.3,1.75,1.88,1.75,1.88"/>
  <path class="cls-1" d="M93.04,126.21s-3.16-2.67-6.98-4.53-5.1-3.4-5.1-3.4c0,0,3.07-2.02,5.29-1.36,2.21.66.71-2.55,2.36-2.82s3.66-.35,4.44,2.39,1.38,2.29,1.38,2.29"/>
  <path class="cls-1" d="M135.78,122.86c-.91-.67-4.03-2.24-4.84-2.37s-1.22.05-1.67,1.04,1.63,2.21,2.48,3.74-1.51,2.26-2.5,2.45,0,1.13,0,2.21-1.58.59-2.89.51-1.27-.45-2.49-2.61-3.31-4.59-3.31-4.59c0,0,3.83-.87,5.49-3.27,1.66-2.4,2.42-3.57,3.96-3.13s3.17,2.38,4.39,3.68,1.36,2.34,1.36,2.34Z"/>
  <path class="cls-1" d="M136.38,54s-2.35-.46-4.77-.28-1.88-.04-1.88-.04c0,0,2.17-2.25-1.14-5.53s-4.84-4.69-6.25-4.92-1.95-1.05-1.95-1.05c0,0,2.28-3.89,2.51-5.36s2.22-3.66,4.64-2.37,3.24,1.46,3.95,1.87"/>
  <path class="cls-1" d="M132.93,62.61s.88,2.75-.39,4.78-3.45,4.05-3.43,4.99.23,2.22.9,2.55,4.72,2.4,5.46,3.41c.74,1.01,1.08,2.22,1.89,2.55s1.55,1.74,1.55,1.74"/>
  <path class="cls-1" d="M139.93,90.09l-2.77,2.59s3.25-.56,4.35,2.76c1.1,3.32-.85,7.5-1.87,8.87l-1.01,1.37s-.27,1.49,1.43,3.04l1.7,1.55"/>
  <path class="cls-1" d="M95.19,60.72s2.82,2.64,3.18,3.6,8.4-.25,9.01,0"/>
  <path class="cls-1" d="M108.31,66.46s-1.95.74-1.94,1.47,3.17,1.75,3.79,3.4c.62,1.64,2.47,1.64,2.47,1.64,0,0,2.65-.07,2.03-2.69"/>
  <path class="cls-1" d="M105.71,72.62s-3.66,1.75-5.08,3.39c-1.42,1.63-2.53-1.97-4.49-3.39-1.95-1.42-.73-.2,1.64-1.92"/>
  <path class="cls-1" d="M63.41,73.57s-4.33-3.97-2.7-9.86c1.63-5.89,2.7-3.96,2.7-3.96,0,0,.91-6.41,3.52-8.26l2.61-1.84s2.4,6.53.61,11.07l-1.79,4.54s1.48,1.8.7,4.97c-.78,3.17-3.94,4.74-3.93,6.56"/>
  <path class="cls-1" d="M52.01,47.54s-3.66,1.98-3.33,0,1.16-3.81,1.65-4.23,2.88-.34,1.67-3"/>
  <path class="cls-1" d="M74.98,23.58s-1.01-2.92-3.78-.91-4.54,4.58-5.19,3.79-3.83-3.76-4.08-.77-.18,3.06-.83,2.71-2.35.93-1.48,3.57,1.93,2.41,1.51,2.92-1.3,1.29-.79,1.93,1.59,3.56,3.08,2.77.42-1.92,1.06-1.93.17,3.34,2.69,3.26,2.87-.61,2.87-.61c0,0,.51,3.93,2.93,3.72s3.42-.43,3.63-1,.93.92,2.71.42,2.92-1.01,2.91-1.72"/>
</svg>