<?xml version="1.0" encoding="UTF-8"?>
<svg id="tracés" xmlns="http://www.w3.org/2000/svg" viewBox="0 0 160 160">
  <defs>
    <style>
      .cls-1 {
        fill: none;
        stroke: #7a1711;
        stroke-miterlimit: 10;
      }
    </style>
  </defs>
  <g>
    <path class="cls-1" d="M98.65,75.46l-3.26-1.05s-.91-.04-4.7-1.85-6.34-1.14-6.34-1.14c0,0-1.75,2.21-3.23,4.56-1.48,2.34-9.49,17.74-9.49,17.74,0,0-5.74,10.76-6.92,12.12s-.43,3.51-.43,3.51l4.13,4.28s3.24.65,5.57.68,3.86,2.22,5.32,6.11c1.46,3.89-1.33,8.55-1.33,8.55,0,0-1.67-.26-2.81-.43s-3.73-1.21-6.89-4.09c-3.17-2.88-1.05-10.38-1.05-10.38l-4.97-4.23.26,11.13,1.71,1.61c1.71,1.61,1.15,3.11,1.3,7.22.15,4.12-8.87,7.31-8.87,7.31,0,0-.26-.13-1.55-3.06s.46-6,1.41-9.21,4.67-4.31,4.67-4.31c0,0,.06-6.79.06-8.24s-1.5.07-1.5.07c-.32,1.43-5.18,7.71-5.18,7.71,0,0,1.06,1.7.71,4.31-.36,2.61-6.4,6.94-7.78,7.23s-4.8-.59-5.33-1.04.2-.94,1.09-2.4.6-2.65,2.74-6.81c2.14-4.16,7.4-1.74,7.4-1.74,0,0,4.42-5.27,5.18-6.9l-.3-1.35s-.97-.52-1.68-2.71c-.71-2.19,3.06-2.64,2.79-3.03s-2.22-.41-2.22-.41c-2.38-.21-3.71-.21-5.94-.2s-8.23,2.11-8.23,2.11c0,0-1.48,0-2.74.75s-3.4,4.47-3.4,4.47c0,0-3.17,4.83-6.29,6.33-3.11,1.5-6.91-1.53-8.02-1.9s-3.95-4.88-4.1-5.77-1.72-3.04-2.02-4.07-.61-4.9-.62-6.23c0-1.34-1.12-2.3-1.5-4.45-.38-2.15-1.27-3.48-2.4-5.71-1.12-2.22-1.06-5.34-1.81-7.56-.75-2.22-1.22-8.23-2.11-9.05s-.31-3.19-.31-4.45c0-1.26,1.48-1.71,1.47-3.42s1.32-4.09,3.17-5.5c1.85-1.42,2.46,2.74,2.46,2.74,0,0,4.02,4.51,5.15,6.66.43.83,1.24,2.08,2.11,3.34,1.37,1.99,2.89,4.04,3.34,4.58.75.89,4.91,4.06,5.44,6.29.53,2.22.33,4.38,1.52,6.08s3.73,6.74,3.73,6.74c0,0,1.5,3.26,2.02,4.37s-.3,3.95,4.11,3.06c4.42-.89,9.66-.81,9.66-.81l9.42-.04c.92,0,1.9,1.94,4.65-2.83,2.75-4.77,8.44-15.76,8.44-15.76,0,0,5.45-10.12,6.46-11.39,1.01-1.27,1.68-2.97,1.68-2.97l-29.58-8.65-28.57,7.7s-.45,1.4.58,2.67c1.04,1.27,1.13,1.88,1.13,1.88,0,0,1.08.87-.58.36s-3.03-1.09-3.46-1.29"/>
    <line class="cls-1" x1="63.39" y1="110.77" x2="63.39" y2="121.75"/>
    <line class="cls-1" x1="64.97" y1="112.11" x2="64.97" y2="123.43"/>
    <path class="cls-1" d="M96.58,105.03l-1.46,3.63s-7.17-.6-8.42,6.3.69,7.89.69,7.89c0,0,6.23.39,8.44-1.38s2.28-2.64,2.28-2.64c0,0-1.14,3.05,0,5.3s1.83,1.59,1.83,1.59l2.04-1.08s-1,1.84,1.26,2.83c2.25,1,6.41,1.85,8.76.17s3.83-4.03,3.61-6.66-1.33-3.77-1.33-3.77l4.65-6.04,2.28-.22,4.03,4.38s-.67,5.13,2.14,7.02,5.45,2.75,8.22,2.74,2.8-.36,2.8-.36c0,0,.15-5.26-4.15-8.09-4.3-2.82-7.07-1.88-7.07-1.88h-.45s-4.07-4.14-4.07-4.14l-.5-3.46h5.4s.73,1.6,3.23,1.73,3.22-.01,3.22-.01c0,0,3.75,3.31,6.96.39s4.82-7.19,4.82-7.19c0,0,.79-.87-3.5-1.2s-5.54.02-5.54.02c0,0-3.05-1.24-5.09-.43s-4.24,3.82-4.24,3.82l-3.26-.61,5.52-4.56s5.89,1.26,8.13-.62,4.72-5.8,4.72-5.8c0,0,2.13-3.47-2.92-3.45s-7.48.03-8.17,1.62c-.69,1.6-2,3.33-1.95,5.06s-.72,2.7-.72,2.7l-5.97,4.14-4.49-3.09,5.06-4.84s1.58,1.21,3.18-.34c1.6-1.55,3.46-3.78,3.46-3.78,0,0,1.41-.69,1.53-1.68.13-.98.19-3.02.19-3.02,0,0,1.28-.73,1.3-2.17s.51-4.99.01-5.97-1.59-3.96-3.42-3.2-5.89,4.61-5.89,4.61c0,0-1.57,2.01-.83,4.95.73,2.95.99,2.91,1,3.57s-.12,1.84-.12,1.84l-6.44,6.29-.69-.49,1.02-7.05,1.27-2.89s6.43-8.58.64-12.46c-5.79-3.88-9.73,3.32-9.73,3.32l-.92.56s.18-4.49-3.04-5.83-3.71-1.49-4.79-1-2.25,2.09-2.25,2.09l-1.44-.85s-7.58-5.03-9.12-5.87c-1.55-.85-3.73,1.62-3.73,1.62l-1.69,1.53s-29.42-8.43-30.94-8.65-29.85,7.76-29.85,7.76c0,0-.27-.49-.9-2.64-.63-2.14-2.88-3.57-3.99-3.52s-1.85,2.26-1.85,2.26"/>
    <path class="cls-1" d="M106.78,88.21s1.22-3.15,2.37-3.75-1.72-2.98-.93-4.65c0,0-1.8,1.77-2.69,1.96s1.25,6.44,1.25,6.44Z"/>
    <path class="cls-1" d="M111.77,83.1c1.71-1.08,3.34-.41,3.34-.41,0,0,.92,1.67,1.33,5.09.41,3.42-2.08,6.05-2.08,6.05l-1.42,1.37s.2,2.24.41,4.15c.14,1.3.29,2.45.4,2.66.25.53,2.01,2.08,2.01,2.08l3.32,3.69-5.61,7.08-.48-.44c-3.2-2.77-2.06-5.29-2.06-5.29,0,0-2.82-1.11-2.81,2.62s-5.42,4.03-6.64,4.03-2.68-.5-5.07-2.7c-2.38-2.2-.15-3.39-.15-3.39,0,0,2.3-3.5,5.72-3.96s5.64,2.43,5.64,2.43l3.9-3.32-.44-1.11-8.03-.58s-2.93,1.83-5.39,1.94-4.42-1.57-5-1.97-2.98-4.44-3.5-6.02.67-1.93.77-2.06,2.56-1.29,3.84-1.6,4.79-.25,8.1,1.29c3.31,1.54,2.19,7.07,2.19,7.07l8.03.51-.28-1.96-.36-5.36s1.08-.21-1.52-.4-3.42-4.71-3.42-4.71c0,0-2.09.68-3.37.72s-5.46.05-5.46.05c0,0-3.65-.55-3.8.14s-4.17,2.26-5.24,3.46c-1.07,1.21-5.85,3.79-7.76,3.93s-4.16-.55-4.16-.55c0,0-.15-.48-.21-1.68-.06-1.2.63-1.2,1.32-2.45s2.06-3.19,2.06-3.19c0,0-3.35-4.1-1.91-5.99s6.71-2.54,6.71-2.54c0,0,3.01-.14,5.37,1.93q2.36,2.08,2.36,2.08l2.9-4.01s.56-1.2,1.65-1.23,2.32.22,2.55.78,1.56,1.81,1.56,1.81l2.79,2.04.83-.1-.51-3.01s-4.21-1.28-5.11-4.35-.22-5.49-.22-5.49"/>
    <path class="cls-1" d="M133.17,78.33s1.82-1.13,3.5-1.48l1.69-.35s.74,4.18-.74,7.17l-1.48,3-1.97,2.8"/>
    <path class="cls-1" d="M132.68,107.6s-1.26-.92-1.11-1.65,1.83-2.33,2.16-2.37,2.32-1.33,2.32-1.33"/>
    <path class="cls-1" d="M92.99,86.8l.92,2.53s8.24.34,8.85-.11.85-1.44.71-1.92-2.07-3.46-4.28-3.85-4.03.34-4.03.34l-2.18,3.02Z"/>
    <path class="cls-1" d="M79.89,90.32s1.89,3.15,5.14,3.58"/>
    <path class="cls-1" d="M113.41,99.96s2.29.05,2.29.32,1.09,1.11,2.03,1.21,2.95,2.18,2.95,2.18c0,0-1.35.17-1.61.95s1.45,2.22,1.45,2.22l-1.45.92"/>
    <path class="cls-1" d="M118.95,59.37c-1.25-.62-6-.91-8.33-.51s-5.12,5.47-3.71,6.71,12.84.57,12.84.57l6.35-6.33s.16-1.17,0-2.96-.63-2.8-.8-4.74-.02-4.51-.03-6.93.44-7.01-2.06-10.34-4.75-1.85-4.75-1.85c0,0-.34-7.7-7.5-7.29s-8.99,11.01-8.99,11.01c0,0-.08-.39-1.64-2.8s-6.55-4.1-8.11-4.09-1.17-.15-4.52-1.36-5.45,0-5.45,0c0,0,12.68,19.8,12.85,21.67s-3.35.4-3.18,3.83.42,7.86,4.08,10.1c3.67,2.24,4.76,3.64,7.72,3.86,0,0,2.74,1.11,4.2,3.5,1.46,2.39,1.71,3.09,1.71,3.09l.23,1.92"/>
    <path class="cls-1" d="M101.7,40.03s-1.77,7.98-3.01,9.41c-1.24,1.43-3.72,2.87-3.72,2.87,0,0-1.47.6-1.47,1.57,0,.24.61,6.99,2.93,8.33,3.09,1.79,5.54,2.56,5.54,2.56h2.03s1.33-1.99,1.33-1.99c0,0-3.52-4.36-4.58-4.96s-2.22-2.76-3.1-2.75-2.99.35-3.96.45"/>
    <path class="cls-1" d="M18.7,105.77s-1.23.31.83,1.44,3.39,1.01,3.39,1.01c0,0-.19,3.38,2.69,3.89s5.86,1.63,8.94-.54c3.07-2.17,3.89-3.82,3.89-3.82"/>
    <path class="cls-1" d="M12.18,64.77s4.26,11.22,6.74,15.78c2.48,4.56,2.59,5.59,4.03,7.12s7.54,9.82,8.88,11,4.33,3.95,4.33,3.95"/>
    <path class="cls-1" d="M9.94,68.93s.12,4.01.94,5.44.41.31.83,1.44.93,2.48,1.45,4.01c.52,1.53.93,2.22,1.45,3.52.52,1.29,3.84,3.23,3.73,4.26s.82,3.08,1.65,3.9,2.28,4,3,5.13c.72,1.13,3.18,4.55,5.4,6.01,2.23,1.46,3.77,3.32,5.93,3.15s4.93.44,4.93.44"/>
    <path class="cls-1" d="M124.16,41.4s-1.71-6.34-8.06-5.51-8.76,4.49-8.76,4.49c0,0-2.82,3.18-4.44,4.68-1.62,1.49-2.96,3.59-2.96,3.59"/>
    <path class="cls-1" d="M98.2,51.49s4.71-4.66,10.05-4.69c5.34-.03,8.99,1.24,8.99,1.24,0,0,3.79,3.3,4.82,6.4s2.11,5.26,2.11,5.26"/>
    <path class="cls-1" d="M128.64,68.18l10.63-10.39s.74-5.78-4.85-5.51l-8.32,7.52"/>
    <path class="cls-1" d="M118.16,72.34s4.85-1.59,7.94-2.56c.85-.27,1.57-.49,2.02-.62,2.08-.6,3.18-.44,3.02-1.11s-1.17-1.17-1.17-1.17"/>
    <path class="cls-1" d="M104.92,64.45s-.97,3.07,1.03,3.3,5.5.25,6.6.25,6.76-.54,8.01-.34,2.55.19,4.09.73c1.54.54,2.09,1.19,2.09,1.19"/>
    <path class="cls-1" d="M120.65,74.01s2.13-1.16,6.82-2.62c4.7-1.46,5.98-2.02,5.29-3.37-.69-1.34-1.97-1.93-1.97-1.93"/>
    <path class="cls-1" d="M135.86,77.07s-3.95-2.83-3.41-3.83,3.04-1.22,3.04-1.22c0,0,4.71,1.9,6.14,3.68,1.42,1.79,2.01,2.45,2.93,3.07s3.84,2.36,3.97,3.98.43,3.62.43,3.62c0,0-.62.21,1.24-1.5,1.87-1.71,1.82-4.38,1.64-5.67-.17-1.29-1.39-4.45-4.14-5.86-2.75-1.41-4.76-2.65-7.05-2.6s-3.79.35-4.33-.23-1.68-2.45-1.68-3.16c0-.71.06-5.09.06-5.09"/>
    <path class="cls-1" d="M133.47,63.46s.31,2.83,0,3.45-.89.79-.89.79"/>
    <path class="cls-1" d="M113.14,97.34s1.34-.04,1.73-.79.45-2.52.45-2.52v-1.52"/>
    <path class="cls-1" d="M112.37,115.78s-8.84-1.04-10.04,5.84"/>
    <path class="cls-1" d="M114.97,116.32s3.07,2.85,4.24,2.71,2.17-3.44,2.17-3.44l.36-4.06"/>
    <path class="cls-1" d="M88.64,94.26s-1.85.16-2.62-.08"/>
    <path class="cls-1" d="M130.59,72.34s-5.06,4.25-5.93,5.26c-.87,1.01-2.51,4.31-2.51,4.31l-.96-.48"/>
    <path class="cls-1" d="M112.14,73.64s-3.72-3.72-4.97-4.06-1.45-.5-1.45-.5"/>
    <path class="cls-1" d="M123.72,61.19s-7.51-5.52-12.02-4.12-5.98,4.46-5.98,4.46"/>
  </g>
  <path class="cls-1" d="M134.25,53.36s-2.16,5.38,4.45,4.23"/>
</svg>